<?xml version="1.0" standalone="yes"?>
<svg xmlns="http://www.w3.org/2000/svg" width="425" height="494">
<path style="fill:#000000; stroke:none;" d="M200 494L200.361 492.583L200.722 492.167L201.333 491.333L202.111 490.611L203.917 488.917L205.611 487L206.361 486L207.861 484L208.639 483L210.139 481L210.861 480L212.361 478L213.139 477L213.861 476L215.389 474L216.194 473L217.806 471L218.611 470L220.139 468L220.861 467L221.639 466L222.361 465L223.139 464L223.861 463L225.361 461L226.139 460L226.861 459L228.389 457L229.194 456L230.806 454L231.611 453L233.139 451L233.861 450L234.639 449L235.361 448L236.139 447L236.861 446L237.639 445L238.361 444L239.139 443L240.639 441L241.361 440L242.139 439L243.639 437L244.361 436L245.139 435L245.861 434L247.389 432L248.194 431L249.806 429L250.611 428L252.139 426L252.861 425L254.361 423L255.139 422L255.861 421L256.639 420L257.361 419L258.139 418L259.611 416L260.306 415L261.694 413L262.389 412L263.861 410L264.639 409L266.139 407L266.861 406L267.639 405L268.361 404L269.139 403L270.639 401L271.361 400L272.139 399L273.611 397L274.306 396L275.694 394L276.389 393L277.861 391L278.611 390L279.306 389L280.694 387L281.389 386L282.861 384L283.611 383L284.306 382L285.694 380L286.389 379L287.139 378L288.611 376L290 374L290.667 373L292.667 370L294 368L295.389 366L296.139 365L297.611 363L299 361L299.667 360L301 358L304.333 353L307 349L308.333 347L309.611 345L310.194 344L311.389 342L312.028 341L312.667 340L313.333 339L314.667 337L315.333 336L315.972 335L316.611 334L317.194 333L318.389 331L319.611 329L320.806 327L321.389 326L322.611 324L323.194 323L324.389 321L325.611 319L326.75 317L327.25 316L328.389 314L329.611 312L330.75 310L331.222 309L332.25 307L332.833 306L333.389 305L334.611 303L335.167 302L335.75 301L336.778 299L337.222 298L337.778 297L338.222 296L338.778 295L339.778 293L340.222 292L340.778 291L341.778 289L342.222 288L342.778 287L343.222 286L343.778 285L344.75 283L345.167 282L345.611 281L346.389 279L346.833 278L347.25 277L347.778 276L348.222 275L348.75 274L349.611 272L350.389 270L351.25 268L351.75 267L352.611 265L353.389 263L354.194 261L354.611 260L354.972 259L355.333 258L355.667 257L356.333 255L356.667 254L357.028 253L357.389 252L358.194 250L358.611 249L359.333 247L360 245L360.667 243L361 242L361.611 240L362.139 238L362.389 237L362.694 236L363.306 234L363.611 233L364.139 231L364.361 230L364.639 229L365.139 227L365.361 226L365.639 225L366.139 223L366.361 222L366.639 221L366.861 220L367.139 219L367.611 217L367.806 216L368.194 214L368.389 213L368.611 212L368.806 211L369.194 209L369.389 208L369.611 207L369.944 205L370.056 204L370.389 202L370.778 200L370.917 199L371.083 197L371.222 196L371.611 194L371.917 192L371.972 191L372.028 189L372.083 188L372.389 186L372.611 185L372.917 183L372.972 182L373 181L373 179L373 174L373 165L373 162L373 161L372.917 159L372.611 157L372.389 156L372.056 154L371.944 153L371.611 151L371.222 149L370.944 147L370.778 146L370.611 145L370.139 143L369.861 142L369.639 141L369.139 139L368.861 138L368.639 137L368.361 136L368.139 135L367.611 133L367.306 132L367 131L366.333 129L365 125L364 122L363.333 120L362.611 118L362.194 117L361.389 115L360.611 113L359.75 111L359.222 110L358.25 108L357.833 107L357.389 106L356.611 104L355.75 102L355.222 101L354.75 100L354.167 99L353.611 98L352.389 96L351.25 94L350.75 93L349.611 91L348.389 89L347.194 87L346.611 86L345.972 85L345.333 84L344 82L342.667 80L342 79L340.611 77L339.861 76L338.361 74L337.639 73L336.861 72L336.139 71L334.611 69L332.944 67L332.056 66L330.389 64L329.611 63L327.917 61L326.972 60L325 58L323 56L320 53L318 51L317 50L315 48.0278L314 47.0833L312 45.3889L311 44.6111L310 43.8055L308 42.1945L307 41.3889L305 39.8611L304 39.1389L303 38.3611L302 37.6389L300 36.1389L299 35.3889L298 34.6945L297 34L295 32.6667L293 31.3333L292 30.6667L290 29.3889L289 28.8055L287 27.6111L285 26.3889L284 25.8333L283 25.25L282 24.7778L280 23.7778L279 23.2222L278 22.7778L277 22.2222L276 21.7778L275 21.2222L274 20.7778L272 19.7778L271 19.25L270 18.8333L269 18.3889L267 17.6111L265 16.8055L264 16.3889L262 15.6111L260 14.8055L259 14.3889L258 14.0278L257 13.6667L255 13L253 12.3333L252 12L250 11.3889L249 11.1389L248 10.8611L247 10.6389L246 10.3611L245 10.1389L244 9.86111L243 9.63889L242 9.36111L240 8.86111L239 8.63889L238 8.36111L237 8.13889L235 7.63889L234 7.38889L232 7.05554L231 6.94446L229 6.61111L228 6.38889L226 6.05554L225 5.94446L223 5.61111L222 5.38889L220 5.08334L219 5.02777L217 4.91666L215 4.61111L214 4.38889L212 4.08334L211 4.02777L209 4L208 4L206 4L197 4L187 4L185 4L184 4L182 4.02777L181 4.08334L179 4.38889L178 4.61111L176 4.91666L174 5.02777L173 5.08334L171 5.38889L169 5.77777L167 6.05554L165 6.38889L163 6.80554L161 7.19446L160 7.38889L158 7.86111L157 8.13889L156 8.36111L155 8.63889L154 8.86111L152 9.38889L151 9.69446L149 10.3055L148 10.6111L147 10.8611L146 11.1389L144 11.6945L142 12.3889L140 13.1945L139 13.6111L137 14.3333L136 14.6667L135 15.0278L134 15.3889L132 16.25L131 16.75L129 17.6111L127 18.3889L126 18.8333L125 19.25L123 20.2222L122 20.7778L121 21.2222L119 22.25L117 23.3889L115 24.6111L113 25.75L112 26.25L110 27.3889L109 28.0278L108 28.6667L107 29.3333L105 30.6667L103 32L102 32.6945L101 33.3889L99 34.8611L98 35.6389L97 36.3611L96 37.1389L95 37.8611L93 39.3889L91 41.0555L90 41.9445L88 43.6111L87 44.3889L85 46.0833L84 47.0278L82 49L80 51L77 54L76 55L74.0278 57L73.0833 58L71.3889 60L70.6111 61L69.7778 62L68.0556 64L67.2222 65L66.3889 66L64.8611 68L64.1389 69L63.3611 70L62.6389 71L61.1389 73L60.3889 74L59 76L57.6667 78L55.6667 81L54.3333 83L53.6667 84L53.0278 85L52.3889 86L51.25 88L50.75 89L49.6111 91L48.3889 93L47.8333 94L47.25 95L46.7778 96L45.7778 98L45.2222 99L44.7778 100L44.2222 101L43.7778 102L43.2222 103L42.25 105L41.8333 106L41.3889 107L40.6111 109L39.75 111L39.25 112L38.3889 114L38.0278 115L37.6667 116L37 118L35.3333 123L33.6667 128L33 130L32.6944 131L32.3889 132L31.8611 134L31.6389 135L31.3611 136L31.1389 137L30.8611 138L30.3889 140L30.1944 141L29.8056 143L29.6111 144L29.3889 145L29.1944 146L28.8056 148L28.6111 149L28.2222 151L28 153L27.9167 154L27.6111 156L27.3889 157L27.0833 159L27.0278 160L27 161L27 163L27 168L27 178L27 180L27 181L27.0278 183L27.0833 184L27.3889 186L27.6111 187L27.9167 189L27.9722 190L28.0278 192L28.0833 193L28.3889 195L28.7778 197L28.9167 198L29.0833 200L29.3889 202L29.7778 204L30.0556 206L30.3889 208L30.6111 209L30.8056 210L31.1944 212L31.3889 213L31.6111 214L31.8056 215L32.1944 217L32.3889 218L32.8611 220L33.1389 221L33.3611 222L33.6111 223L33.8056 224L34.1944 226L34.3889 227L34.6389 228L34.8611 229L35.3889 231L35.6944 232L36.3056 234L36.6111 235L36.8611 236L37.3889 238L38 240L38.3333 241L39 243L39.3056 244L39.6111 245L40.1389 247L40.3889 248L41 250L41.6667 252L42.3333 254L42.6667 255L43.3889 257L44.1944 259L44.6111 260L44.9722 261L45.3333 262L45.6667 263L46.3333 265L46.6667 266L47.0278 267L47.3889 268L47.8056 269L48.6111 271L49.3889 273L49.8056 274L50.6111 276L51.3889 278L52.25 280L52.75 281L53.6111 283L54.3889 285L55.25 287L55.75 288L56.6111 290L57.3889 292L58.25 294L58.7778 295L59.7778 297L60.2222 298L60.7778 299L61.2222 300L62.2222 302L62.7778 303L63.2222 304L63.7778 305L64.7778 307L65.2222 308L65.7778 309L66.2222 310L66.7778 311L67.2222 312L67.7778 313L68.2222 314L69.2222 316L69.7778 317L70.2222 318L70.7778 319L71.2222 320L71.7778 321L72.2222 322L72.7778 323L73.7778 325L74.25 326L75.3889 328L76.6111 330L77.75 332L78.25 333L79.3889 335L80.6111 337L81.75 339L82.25 340L83.3889 342L84.6111 344L85.8056 346L86.3889 347L87.6111 349L88.1944 350L89.3889 352L90.6111 354L91.8056 356L92.3889 357L93.0278 358L93.6667 359L94.3333 360L95.6111 362L96.8056 364L97.3889 365L98.6667 367L100 369L102 372L108.667 382L110.667 385L112 387L113.389 389L114.861 391L115.611 392L116.306 393L117 394L117.667 395L119 397L119.694 398L120.389 399L121.861 401L122.639 402L123.361 403L124.139 404L124.861 405L125.639 406L126.361 407L127.139 408L128.639 410L129.361 411L130.139 412L130.861 413L131.639 414L132.361 415L133.139 416L134.639 418L135.361 419L136.139 420L136.861 421L138.389 423L139.194 424L140.806 426L141.611 427L142.361 428L143.139 429L143.861 430L145.389 432L146.194 433L147.806 435L149.389 437L150.194 438L151.806 440L152.611 441L153.389 442L154.194 443L155.806 445L156.611 446L157.389 447L159.056 449L160.778 451L162.389 453L164.083 455L165.917 457L166.778 458L168.389 460L170.056 462L170.944 463L172.611 465L173.389 466L175.083 468L176.028 469L177.917 471L179.611 473L180.389 474L182.083 476L183.028 477L184.917 479L186.611 481L188.222 483L189.083 484L191 486L192.917 487.972L194.611 489.778L195.361 490.611L196.861 492.111L198.333 493.306L198.75 493.639L200 494z"/>
<path style="fill:#730000; stroke:none;" d="M180.667 10.3333L180.667 10.6667L181.333 10.6667L181 10.3333L180.667 10.3333z"/>
<path style="fill:#ba0000; stroke:none;" d="M182 10L182.778 10.7222L183.306 10.75L184.056 10.9445L184.972 10.9722L187 11L186.222 10.2778L185.694 10.25L184.944 10.0555L184.028 10.0278L182 10z"/>
<path style="fill:#e70000; stroke:none;" d="M187 10L187.778 10.7222L188.306 10.75L189.111 10.9445L190.028 10.9722L191.944 11L192.944 11L195 11L194.222 10.2778L193.694 10.25L192.889 10.0555L191.972 10.0278L190.056 10L189.056 10L187 10z"/>
<path style="fill:#ff0000; stroke:none;" d="M198 484L199.5 483.222L200.028 482.694L200.972 481.889L202.611 480L204.139 478L204.861 477L205.639 476L206.361 475L207.139 474L208.639 472L209.361 471L210.139 470L210.861 469L212.389 467L213.194 466L214.806 464L215.611 463L217.139 461L217.861 460L219.361 458L220.861 456L221.639 455L222.361 454L223.139 453L223.861 452L225.389 450L226.194 449L227.806 447L228.611 446L230.139 444L230.861 443L231.639 442L232.361 441L233.139 440L234.639 438L235.361 437L236.139 436L236.861 435L237.639 434L238.361 433L239.861 431L240.639 430L241.361 429L242.139 428L242.861 427L243.639 426L244.361 425L245.139 424L245.861 423L246.639 422L247.361 421L248.861 419L249.639 418L250.361 417L251.139 416L251.861 415L252.639 414L253.361 413L254.139 412L254.861 411L255.639 410L256.361 409L257.139 408L258.639 406L259.361 405L260.139 404L260.861 403L261.639 402L262.361 401L263.139 400L264.639 398L265.361 397L266.139 396L267.611 394L268.306 393L269.694 391L270.389 390L271.861 388L272.611 387L273.306 386L274.694 384L275.389 383L276.139 382L277.611 380L278.306 379L279.694 377L280.389 376L281.139 375L282.611 373L283.306 372L284 371L284.667 370L286.667 367L288 365L288.694 364L289.389 363L290.861 361L291.611 360L293 358L293.667 357L295 355L298.333 350L302.333 344L303.667 342L304.333 341L305.611 339L306.806 337L307.389 336L308.667 334L309.333 333L309.972 332L310.611 331L311.194 330L312.389 328L313.611 326L314.806 324L315.389 323L316.611 321L317.806 319L318.389 318L319.611 316L320.194 315L321.389 313L322.611 311L323.75 309L324.222 308L325.25 306L325.833 305L326.389 304L327.611 302L328.167 301L328.75 300L329.778 298L330.222 297L330.778 296L331.222 295L332.222 293L332.778 292L333.222 291L333.778 290L334.222 289L334.778 288L335.222 287L335.778 286L336.222 285L336.778 284L337.778 282L338.222 281L338.778 280L339.75 278L340.167 277L340.611 276L341.389 274L341.833 273L342.25 272L343.222 270L343.75 269L344.167 268L344.611 267L345.389 265L346.194 263L346.611 262L347.389 260L348.194 258L348.611 257L349.333 255L349.667 254L350.028 253L350.389 252L351.194 250L351.611 249L352.333 247L352.667 246L353.667 243L354.667 240L355 239L355.306 238L355.611 237L356.139 235L356.361 234L356.639 233L356.861 232L357.139 231L357.639 229L357.861 228L358.139 227L358.361 226L358.639 225L358.861 224L359.139 223L359.639 221L359.861 220L360.139 219L360.611 217L360.806 216L361.194 214L361.611 212L361.806 211L362.194 209L362.389 208L362.611 207L362.806 206L363.194 204L363.389 203L363.611 202L364 200L364.389 198L364.778 196L364.917 195L365.028 193L365.083 192L365.222 191L365.611 189L365.917 187L365.972 186L366 185L366 184L366 182L366.028 180L366.083 179L366.389 177L366.611 176L366.917 174L366.972 173L367 171L367 170L367 168L366.972 167L366.917 166L366.611 164L366.389 163L366.083 161L366.028 160L366 158L365.972 157L365.917 156L365.611 154L365.389 153L365 151L364.611 149L364.194 147L363.806 145L363.611 144L363.361 143L363.139 142L362.611 140L362 138L361.417 136L361 134L360.806 133L360.583 132L360 130L359.333 128L358.667 126L357.917 124L357.472 123L356.583 121L355.861 119L355.556 118L354.806 116L354.389 115L353.611 113L353.167 112L352.75 111L352.222 110L351.222 108L350.778 107L350.222 106L349.778 105L349.222 104L348.778 103L347.75 101L347.167 100L346.611 99L345.389 97L344.25 95L343.75 94L342.611 92L341.972 91L341.333 90L340.667 89L338.667 86L336.667 83L336 82L334.611 80L333.861 79L333.139 78L331.611 76L330.806 75L329.194 73L327.611 71L326.778 70L325.917 69L324.083 67L323.222 66L321.611 64L320.778 63L319.917 62L318 60L317 59L316 58L314 56.0278L313 55.0833L311 53.3889L309 51.7778L308 50.9167L306 49.0833L304 47.3889L303 46.6389L301 45.1389L300 44.3611L299 43.6389L297 42.1389L296 41.3889L295 40.6945L294 40L293 39.3333L291 38L289 36.6667L288 36.0278L287 35.3889L286 34.8055L284 33.6111L282 32.3889L281 31.8333L280 31.25L279 30.7778L277 29.7778L276 29.2222L275 28.7778L274 28.2222L273 27.7778L272 27.2222L271 26.7778L269 25.7778L268 25.25L267 24.8333L266 24.3889L264 23.6111L262 22.8055L261 22.3889L259 21.6111L257 20.8055L256 20.3889L254 19.6667L252 19L251 18.6945L250 18.3889L248 17.8611L247 17.6389L246 17.3611L245 17.1389L243 16.6111L241 16L239 15.4167L237 15L235 14.6111L234 14.3889L233 14.1945L231 13.8055L230 13.6111L229 13.3889L227 13.0555L226 12.9445L224 12.6111L222 12.2222L220 11.9445L218 11.6111L217 11.3889L215 11.0833L214 11.0278L212 11L211 11L209 11L207 10.9722L206 10.9167L204 10.6111L203 10.3889L201 10.0833L199 10L197 10.0833L195 10.3889L194 10.6111L192 10.9167L191 10.9722L189 11L188 11L182 11L180 11L179 11.0278L178 11.0833L176 11.3889L174 11.7778L173 11.9167L171 12.0833L169 12.3889L168 12.6389L167 12.8611L166 13.1389L164 13.6111L163 13.8055L161 14.1945L160 14.3889L158 14.8611L157 15.1389L156 15.3611L155 15.6389L154 15.8611L152 16.3889L151 16.6945L150 17L149 17.3333L147 18L145 18.6111L144 18.8611L142 19.3889L141 19.7222L140 20.0833L138 20.9722L137 21.4167L135 22.1389L134 22.4445L132 23.25L131 23.7778L129 24.7778L128 25.2222L126 26.2222L125 26.7778L124 27.2222L123 27.7778L121 28.7778L120 29.25L119 29.8333L118 30.3889L116 31.6111L114 32.8055L113 33.3889L111 34.6667L110 35.3333L108 36.6667L106 38L104 39.3889L103 40.1389L102 40.8611L101 41.6389L100 42.3889L99 43.1945L97 44.8055L95 46.3889L94 47.2222L93 48.0833L91 49.9167L90 50.7778L88 52.3889L86 54.0833L84 56L83.0278 57L82.0833 58L80.3889 60L79.6111 61L77.9167 63L76.9722 64L75.0833 66L74.2222 67L73.3889 68L71.8056 70L70.1944 72L69.3889 73L67.8611 75L67.1389 76L66.3889 77L65.6944 78L64.3333 80L63.6667 81L61.6667 84L60.3333 86L59.6667 87L58.3889 89L57.8056 90L56.6111 92L55.3889 94L54.8333 95L54.25 96L53.7778 97L52.7778 99L52.2222 100L51.7778 101L51.2222 102L50.7778 103L50.2222 104L49.2222 106L48.7778 107L48.2222 108L47.7778 109L47.2222 110L46.25 112L45.8333 113L45.3889 114L44.6111 116L43.8056 118L43.3889 119L42.6944 121L42.3889 122L42.1389 123L41.6111 125L41.3056 126L41 127L40.3333 129L40 130L39.3889 132L39.1389 133L38.6111 135L38 137L37.3889 139L37.1389 140L36.8611 141L36.3889 143L36.1944 144L35.8056 146L35.3889 148L35.2222 149L35.0833 150L34.9167 152L34.7778 153L34.3889 155L34.0833 157L34.0278 158L33.9722 160L33.9167 161L33.6111 163L33.3889 164L33.0833 166L33.0278 168L33.0833 169L33.3889 171L33.6111 172L33.9167 174L33.9722 175L34 177L34 178L34 184L34 186L34.0278 187L34.0833 188L34.3889 190L34.6111 191L34.9444 193L35.0556 194L35.3889 196L35.6111 197L35.9167 199L36.0833 201L36.3889 203L36.6111 204L36.8056 205L37.1944 207L37.3889 208L37.6111 209L37.9444 211L38.0556 212L38.3889 214L38.6389 215L38.8611 216L39.1389 217L39.6111 219L39.8056 220L40.1944 222L40.3889 223L40.8611 225L41.1389 226L41.6389 228L41.8611 229L42.3889 231L42.6944 232L43.3056 234L43.6111 235L44.1389 237L44.3611 238L44.6389 239L45.1389 241L45.3889 242L45.6944 243L46 244L46.3333 245L47.3333 248L49 253L49.6667 255L50.3889 257L50.8056 258L51.6111 260L51.9722 261L52.3333 262L52.6667 263L53.3889 265L53.8056 266L54.6111 268L55.3889 270L56.1944 272L56.6111 273L57.3889 275L57.8056 276L58.6111 278L59.3889 280L60.25 282L60.75 283L61.6111 285L62.3889 287L63.25 289L64.2222 291L64.7778 292L65.2222 293L66.2222 295L66.75 296L67.1667 297L67.6111 298L68.3889 300L68.8333 301L69.25 302L69.7778 303L70.7778 305L71.2222 306L71.7778 307L72.2222 308L72.7778 309L73.7778 311L74.25 312L74.8333 313L75.3889 314L76.6111 316L77.1667 317L77.75 318L78.2222 319L79.2222 321L79.7778 322L80.2222 323L81.25 325L82.3889 327L83.6111 329L84.75 331L85.25 332L86.3889 334L87.6111 336L88.75 338L89.25 339L90.3889 341L91.6111 343L92.8056 345L93.3889 346L94.6111 348L95.8056 350L96.3889 351L97.6667 353L98.3333 354L99.6111 356L100.194 357L101.389 359L102.028 360L102.667 361L103.333 362L104.667 364L108.667 370L114.667 379L116.667 382L118 384L119.389 386L120.861 388L121.611 389L122.306 390L123.694 392L124.389 393L125.139 394L126.611 396L127.306 397L128.694 399L129.389 400L130.861 402L131.639 403L132.361 404L133.139 405L133.861 406L135.361 408L136.139 409L136.861 410L137.639 411L138.361 412L139.139 413L140.639 415L141.361 416L142.139 417L142.861 418L144.389 420L145.194 421L146.806 423L147.611 424L148.361 425L149.139 426L149.861 427L151.389 429L152.194 430L153.806 432L155.389 434L157.056 436L157.944 437L159.611 439L160.389 440L161.194 441L162.806 443L163.611 444L164.389 445L166.056 447L166.944 448L168.611 450L170.222 452L171.083 453L172.917 455L173.778 456L175.389 458L176.222 459L177.944 461L179.611 463L180.389 464L182.083 466L183.028 467L184.917 469L186.611 471L187.389 472L189.083 474L190.028 475L191.972 477L192.917 478L194.611 480L195.333 480.944L196.167 481.944L196.583 482.5L198 484z"/>
<path style="fill:#be0000; stroke:none;" d="M203 10L203.778 10.7222L204.306 10.75L205.111 10.9445L205.972 10.9722L206.944 11L209 11L208.222 10.2778L207.694 10.25L206.889 10.0555L206.028 10.0278L205.056 10L203 10z"/>
<path style="fill:#940000; stroke:none;" d="M209 10L209.778 10.7222L210.25 10.75L211.056 10.9445L213 11L212.222 10.2778L211.75 10.25L210.944 10.0555L209 10z"/>
<path style="fill:#7d0000; stroke:none;" d="M172.667 11.3333L172.667 11.6667L173.333 11.6667L173 11.3333L172.667 11.3333z"/>
<path style="fill:#b60000; stroke:none;" d="M174.667 11.3333L174.667 11.6667L175.333 11.6667L175 11.3333L174.667 11.3333z"/>
<path style="fill:#ae0000; stroke:none;" d="M217 11L217.778 11.7222L218.25 11.75L219.056 11.9445L221 12L220.222 11.2778L219.75 11.25L218.944 11.0555L217 11M167.667 12.3333L168 12.6667L168.333 12.6667L168 12.3333L167.667 12.3333z"/>
<path style="fill:#bc0000; stroke:none;" d="M223 12L223.778 12.7222L224.25 12.75L225.056 12.9445L227 13L226.222 12.2778L225.75 12.25L224.944 12.0555L223 12z"/>
<path style="fill:#8b0000; stroke:none;" d="M161.667 13.3333L161.667 13.6667L162.333 13.6667L162.333 13.3333L161.667 13.3333z"/>
<path style="fill:#d20000; stroke:none;" d="M163.667 13.3333L163.667 13.6667L164.333 13.6667L164 13.3333L163.667 13.3333z"/>
<path style="fill:#b40000; stroke:none;" d="M229 13L229.722 13.7222L230.25 13.75L232 14L231.278 13.2778L230.75 13.25L229 13z"/>
<path style="fill:#c10000; stroke:none;" d="M158.667 14.3333L158.667 14.6667L159.333 14.6667L159 14.3333L158.667 14.3333z"/>
<path style="fill:#aa0000; stroke:none;" d="M234 14L234.722 14.7222L235.25 14.75L237 15L236.278 14.2778L235.75 14.25L234 14z"/>
<path style="fill:#490000; stroke:none;" d="M153 15L154 16L153 15z"/>
<path style="fill:#c60000; stroke:none;" d="M154.667 15.3333L154.667 15.6667L155.333 15.6667L155 15.3333L154.667 15.3333z"/>
<path style="fill:#720000; stroke:none;" d="M239.667 15.3333L239.667 15.6667L240.333 15.6667L240 15.3333L239.667 15.3333z"/>
<path style="fill:#b90000; stroke:none;" d="M150.667 16.3333L150.667 16.6667L151.333 16.6667L151.333 16.3333L150.667 16.3333z"/>
<path style="fill:#9e0000; stroke:none;" d="M242.667 16.3333L242.667 16.6667L243.333 16.6667L243 16.3333L242.667 16.3333z"/>
<path style="fill:#4d0000; stroke:none;" d="M244 16L245 17L244 16z"/>
<path style="fill:#c20000; stroke:none;" d="M147.667 17.3333L147.667 17.6667L148.333 17.6667L148 17.3333L147.667 17.3333z"/>
<path style="fill:#860000; stroke:none;" d="M246.667 17.3333L246.667 17.6667L247.333 17.6667L247 17.3333L246.667 17.3333z"/>
<path style="fill:#cb0000; stroke:none;" d="M144.667 18.3333L144.667 18.6667L145.333 18.6667L145.333 18.3333L144.667 18.3333z"/>
<path style="fill:#890000; stroke:none;" d="M250 18L251 19L250 18z"/>
<path style="fill:#720000; stroke:none;" d="M141 19L142 20L141 19z"/>
<path style="fill:#870000; stroke:none;" d="M253 19L254 20L253 19z"/>
<path style="fill:#490000; stroke:none;" d="M138 20L139 21L138 20z"/>
<path style="fill:#840000; stroke:none;" d="M256 20L257 21L256 20z"/>
<path style="fill:#d40000; stroke:none;" d="M136.667 21.3333L136.667 21.6667L137.333 21.6667L137 21.3333L136.667 21.3333z"/>
<path style="fill:#b20000; stroke:none;" d="M258 21L259 22L258 21z"/>
<path style="fill:#4d0000; stroke:none;" d="M259 21L260 22L259 21z"/>
<path style="fill:#8a0000; stroke:none;" d="M261 22L262 23L261 22z"/>
<path style="fill:#5d0000; stroke:none;" d="M131 23L132 24L131 23z"/>
<path style="fill:#b50000; stroke:none;" d="M263 23L264 24L263 23z"/>
<path style="fill:#530000; stroke:none;" d="M264 23L265 24L264 23z"/>
<path style="fill:#7d0000; stroke:none;" d="M129 24L130 25L129 24z"/>
<path style="fill:#730000; stroke:none;" d="M266 24L267 25L266 24z"/>
<path style="fill:#8c0000; stroke:none;" d="M127 25L128 26L127 25z"/>
<path style="fill:#870000; stroke:none;" d="M268 25L269 26L268 25M125 26L126 27L125 26z"/>
<path style="fill:#9a0000; stroke:none;" d="M270 26L271 27L270 26z"/>
<path style="fill:#840000; stroke:none;" d="M123 27L124 28L123 27z"/>
<path style="fill:#a90000; stroke:none;" d="M272 27L273 28L272 27z"/>
<path style="fill:#800000; stroke:none;" d="M121 28L122 29L121 28z"/>
<path style="fill:#a30000; stroke:none;" d="M274 28L275 29L274 28z"/>
<path style="fill:#650000; stroke:none;" d="M119 29L120 30L119 29z"/>
<path style="fill:#980000; stroke:none;" d="M276 29L277 30L276 29z"/>
<path style="fill:#8c0000; stroke:none;" d="M278 30L279 31L278 30z"/>
<path style="fill:#a20000; stroke:none;" d="M116 31L117 32L116 31z"/>
<path style="fill:#7d0000; stroke:none;" d="M280 31L281 32L280 31z"/>
<path style="fill:#7e0000; stroke:none;" d="M114 32L115 33L114 32z"/>
<path style="fill:#510000; stroke:none;" d="M282 32L283 33L282 32z"/>
<path style="fill:#ad0000; stroke:none;" d="M283 33L284 34L283 33z"/>
<path style="fill:#930000; stroke:none;" d="M111 34L112 35L111 34z"/>
<path style="fill:#840000; stroke:none;" d="M285 34L286 35L285 34z"/>
<path style="fill:#490000; stroke:none;" d="M109 35L110 36L109 35z"/>
<path style="fill:#550000; stroke:none;" d="M287 35L288 36L287 35z"/>
<path style="fill:#9f0000; stroke:none;" d="M108 36L109 37L108 36z"/>
<path style="fill:#a80000; stroke:none;" d="M288 36L289 37L288 36z"/>
<path style="fill:#580000; stroke:none;" d="M106 37L107 38L106 37z"/>
<path style="fill:#5d0000; stroke:none;" d="M290 37L291 38L290 37z"/>
<path style="fill:#8e0000; stroke:none;" d="M105 38L106 39L105 38z"/>
<path style="fill:#aa0000; stroke:none;" d="M291 38L292 39L291 38z"/>
<path style="fill:#5d0000; stroke:none;" d="M293 39L294 40L293 39z"/>
<path style="fill:#6c0000; stroke:none;" d="M102 40L103 41L102 40z"/>
<path style="fill:#a30000; stroke:none;" d="M294 40L295 41L294 40M101 41L102 42L101 41z"/>
<path style="fill:#790000; stroke:none;" d="M297 42L298 43L297 42z"/>
<path style="fill:#630000; stroke:none;" d="M98 43L99 44L98 43z"/>
<path style="fill:#ad0000; stroke:none;" d="M298 43L299 44L298 43z"/>
<path style="fill:#860000; stroke:none;" d="M97 44L98 45L97 44z"/>
<path style="fill:#490000; stroke:none;" d="M300 44L301 45L300 44z"/>
<path style="fill:#af0000; stroke:none;" d="M96 45L97 46L96 45z"/>
<path style="fill:#7c0000; stroke:none;" d="M301 45L302 46L301 45z"/>
<path style="fill:#a10000; stroke:none;" d="M302 46L303 47L302 46z"/>
<path style="fill:#580000; stroke:none;" d="M93 47L94 48L93 47z"/>
<path style="fill:#6d0000; stroke:none;" d="M92 48L93 49L92 48z"/>
<path style="fill:#7f0000; stroke:none;" d="M91 49L92 50L91 49z"/>
<path style="fill:#650000; stroke:none;" d="M306 49L307 50L306 49z"/>
<path style="fill:#950000; stroke:none;" d="M90 50L91 51L90 50z"/>
<path style="fill:#890000; stroke:none;" d="M307 50L308 51L307 50z"/>
<path style="fill:#a80000; stroke:none;" d="M89 51L90 52L89 51z"/>
<path style="fill:#9f0000; stroke:none;" d="M308 51L309 52L308 51z"/>
<path style="fill:#ae0000; stroke:none;" d="M309 52L310 53L309 52z"/>
<path style="fill:#ad0000; stroke:none;" d="M79 61L80 62L79 61z"/>
<path style="fill:#a20000; stroke:none;" d="M78 62L79 63L78 62z"/>
<path style="fill:#940000; stroke:none;" d="M77 63L78 64L77 63z"/>
<path style="fill:#830000; stroke:none;" d="M76 64L77 65L76 64z"/>
<path style="fill:#630000; stroke:none;" d="M75 65L76 66L75 65z"/>
<path style="fill:#b60000; stroke:none;" d="M322 65L323 66L322 65z"/>
<path style="fill:#a50000; stroke:none;" d="M323 66L324 67L323 66z"/>
<path style="fill:#990000; stroke:none;" d="M324 67L325 68L324 67z"/>
<path style="fill:#7d0000; stroke:none;" d="M325 68L326 69L325 68z"/>
<path style="fill:#af0000; stroke:none;" d="M72 69L73 70L72 69z"/>
<path style="fill:#5c0000; stroke:none;" d="M326 69L327 70L326 69z"/>
<path style="fill:#8f0000; stroke:none;" d="M71 70L72 71L71 70z"/>
<path style="fill:#5f0000; stroke:none;" d="M70 71L71 72L70 71z"/>
<path style="fill:#b50000; stroke:none;" d="M328 72L329 73L328 72z"/>
<path style="fill:#940000; stroke:none;" d="M329 73L330 74L329 73z"/>
<path style="fill:#9f0000; stroke:none;" d="M68 74L69 75L68 74z"/>
<path style="fill:#6d0000; stroke:none;" d="M330 74L331 75L330 74M67 75L68 76L67 75z"/>
<path style="fill:#a20000; stroke:none;" d="M332 77L333 78L332 77z"/>
<path style="fill:#970000; stroke:none;" d="M65 78L66 79L65 78z"/>
<path style="fill:#710000; stroke:none;" d="M333 78L334 79L333 78z"/>
<path style="fill:#550000; stroke:none;" d="M64 79L65 80L64 79z"/>
<path style="fill:#ad0000; stroke:none;" d="M63 81L64 82L63 81z"/>
<path style="fill:#9b0000; stroke:none;" d="M335 81L336 82L335 81z"/>
<path style="fill:#690000; stroke:none;" d="M62 82L63 83L62 82z"/>
<path style="fill:#550000; stroke:none;" d="M336 82L337 83L336 82z"/>
<path style="fill:#af0000; stroke:none;" d="M61 84L62 85L61 84z"/>
<path style="fill:#a40000; stroke:none;" d="M337 84L338 85L337 84z"/>
<path style="fill:#600000; stroke:none;" d="M60 85L61 86L60 85z"/>
<path style="fill:#620000; stroke:none;" d="M338 85L339 86L338 85z"/>
<path style="fill:#9f0000; stroke:none;" d="M59 87L60 88L59 87z"/>
<path style="fill:#aa0000; stroke:none;" d="M339 87L340 88L339 87z"/>
<path style="fill:#4b0000; stroke:none;" d="M58 88L59 89L58 88z"/>
<path style="fill:#580000; stroke:none;" d="M340 88L341 89L340 88z"/>
<path style="fill:#810000; stroke:none;" d="M57 90L58 91L57 90z"/>
<path style="fill:#8f0000; stroke:none;" d="M341 90L342 91L341 90z"/>
<path style="fill:#a70000; stroke:none;" d="M56 92L57 93L56 92z"/>
<path style="fill:#700000; stroke:none;" d="M343 93L344 94L343 93z"/>
<path style="fill:#690000; stroke:none;" d="M54 95L55 96L54 95z"/>
<path style="fill:#910000; stroke:none;" d="M344 95L345 96L344 95z"/>
<path style="fill:#7f0000; stroke:none;" d="M53 97L54 98L53 97z"/>
<path style="fill:#ad0000; stroke:none;" d="M345 97L346 98L345 97z"/>
<path style="fill:#4b0000; stroke:none;" d="M346 98L347 99L346 98z"/>
<path style="fill:#900000; stroke:none;" d="M52 99L53 100L52 99z"/>
<path style="fill:#650000; stroke:none;" d="M347 100L348 101L347 100z"/>
<path style="fill:#9b0000; stroke:none;" d="M51 101L52 102L51 101z"/>
<path style="fill:#680000; stroke:none;" d="M348 102L349 103L348 102z"/>
<path style="fill:#a10000; stroke:none;" d="M50 103L51 104L50 103z"/>
<path style="fill:#700000; stroke:none;" d="M349 104L350 105L349 104z"/>
<path style="fill:#960000; stroke:none;" d="M49 105L50 106L49 105z"/>
<path style="fill:#750000; stroke:none;" d="M350 106L351 107L350 106z"/>
<path style="fill:#8a0000; stroke:none;" d="M48 107L49 108L48 107z"/>
<path style="fill:#680000; stroke:none;" d="M351 108L352 109L351 108z"/>
<path style="fill:#7e0000; stroke:none;" d="M47 109L48 110L47 109z"/>
<path style="fill:#ff4040; stroke:none;" d="M186 110L187 111L186 110z"/>
<path style="fill:#ffa0a0; stroke:none;" d="M187.667 110.333L187.667 110.667L188.333 110.667L188 110.333L187.667 110.333z"/>
<path style="fill:#ffe5e5; stroke:none;" d="M189 110L189.778 110.722L190.25 110.75L191.056 110.944L193 111L192.222 110.278L191.75 110.25L190.944 110.056L189 110z"/>
<path style="fill:#ffffff; stroke:none;" d="M193 110.389L192 110.611L190 110.917L188 111L187 111.028L186 111.083L185 111.222L184 111.417L182 112L180 112.583L179 112.806L177 113.194L175 113.694L173 114.389L172 114.833L171 115.25L170 115.778L169 116.222L168 116.778L167 117.222L166 117.778L165 118.25L163 119.389L162 120.028L160 121.333L159 122L157 123.417L156 124.194L154 125.806L152 127.389L151.028 128.222L150.083 129.083L148.389 131L147.611 132L146 134L144.417 136L143.694 137L143 138L141.667 140L141.028 141L140.389 142L139.25 144L138.778 145L138.25 146L137.833 147L137.389 148L136.694 150L136.389 151L136.139 152L135.611 154L135.306 155L134.694 157L134.417 158L134.056 160L133.944 161L133.611 163L133.389 164L133.083 166L133.028 167L133 168L133 170L133 172L133.028 173L133.083 174L133.389 176L133.611 177L133.944 179L134.056 180L134.389 182L134.806 184L135.194 186L135.417 187L135.694 188L136.389 190L136.806 191L137.611 193L138.389 195L138.833 196L139.278 197L139.833 198L140.389 199L141.667 201L143 203L144.417 205L146 207L147.611 209L148.389 210L150.083 211.917L152 213.611L153 214.389L155 216L157 217.583L159 219L161 220.333L162 220.972L163 221.611L165 222.75L166 223.222L167 223.778L168 224.222L169 224.778L170 225.222L171 225.75L172 226.167L174 226.972L176 227.583L178 228L180 228.417L182 229L184 229.583L185 229.778L186 229.917L188 230L190 230.083L192 230.389L193 230.611L195 230.917L196 230.972L198 231L199 231L201 230.972L202 230.917L204 230.611L206 230.222L207 230.083L209 229.917L210 229.778L212 229.389L213 229.194L215 228.806L216 228.583L218 228L219 227.667L221 227L223 226.333L224 225.972L225 225.611L227 224.75L228 224.222L229 223.778L230 223.222L231 222.75L233 221.611L234 220.972L236 219.667L237 219L239 217.583L240 216.806L242 215.194L244 213.611L244.972 212.778L245.917 211.917L246.778 210.972L247.611 210L249.194 208L250.806 206L251.583 205L253 203L253.667 202L254.972 200L255.611 199L256.722 197L257.167 196L257.611 195L258.389 193L259.194 191L259.611 190L260.306 188L260.583 187L260.806 186L261.194 184L261.611 182L261.944 180L262.056 179L262.389 177L262.611 176L262.917 174L262.972 173L263 172L263 170L263 168L262.972 167L262.917 166L262.611 164L262.389 163L262.056 161L261.944 160L261.583 158L261.306 157L260.694 155L260.389 154L259.861 152L259.611 151L259.306 150L258.611 148L258.167 147L257.75 146L257.222 145L256.75 144L255.611 142L254.972 141L254.333 140L253 138L252.306 137L251.583 136L250 134L248.389 132L247.611 131L245.917 129.083L244 127.389L243 126.611L241 125L239 123.417L237 122L235 120.667L233 119.389L232 118.833L231 118.25L230 117.778L229 117.222L228 116.778L227 116.25L225 115.389L224 115.028L223 114.667L221 114L219 113.333L218 113L216 112.417L215 112.194L213 111.806L211 111.389L209 111.083L207 110.917L206 110.778L204 110.389L203 110.222L202 110.083L200 110L199 110L197 110L195 110.083L193 110.389z"/>
<path style="fill:#ffcbcb; stroke:none;" d="M204 110L204.722 110.722L205.25 110.75L207 111L206.278 110.278L205.75 110.25L204 110z"/>
<path style="fill:#ff7e7e; stroke:none;" d="M207.667 110.333L207.667 110.667L208.333 110.667L208 110.333L207.667 110.333z"/>
<path style="fill:#ff4040; stroke:none;" d="M209 110L210 111L209 110z"/>
<path style="fill:#4f0000; stroke:none;" d="M352 110L353 111L352 110z"/>
<path style="fill:#560000; stroke:none;" d="M46 111L47 112L46 111z"/>
<path style="fill:#ffb7b7; stroke:none;" d="M182.667 111.333L182.667 111.667L183.333 111.667L183 111.333L182.667 111.333M211 111L211.722 111.722L212.25 111.75L214 112L213.278 111.278L212.75 111.25L211 111z"/>
<path style="fill:#ff8282; stroke:none;" d="M178 112L179 113L178 112z"/>
<path style="fill:#ffe2e2; stroke:none;" d="M179.667 112.333L179.667 112.667L180.333 112.667L180.333 112.333L179.667 112.333z"/>
<path style="fill:#ffbbbb; stroke:none;" d="M216 112L217 113L216 112z"/>
<path style="fill:#ff8282; stroke:none;" d="M217 112L218 113L217 112z"/>
<path style="fill:#ff8e8e; stroke:none;" d="M175 113L176 114L175 113z"/>
<path style="fill:#ffcaca; stroke:none;" d="M219 113L220 114L219 113z"/>
<path style="fill:#ff8e8e; stroke:none;" d="M220 113L221 114L220 113z"/>
<path style="fill:#ff7373; stroke:none;" d="M172 114L173 115L172 114z"/>
<path style="fill:#ffc2c2; stroke:none;" d="M222 114L223 115L222 114z"/>
<path style="fill:#ff7373; stroke:none;" d="M223 114L224 115L223 114z"/>
<path style="fill:#ff9c9c; stroke:none;" d="M170 115L171 116L170 115M225 115L226 116L225 115z"/>
<path style="fill:#880000; stroke:none;" d="M354 115L355 116L354 115z"/>
<path style="fill:#780000; stroke:none;" d="M44 116L45 117L44 116z"/>
<path style="fill:#ffadad; stroke:none;" d="M168 116L169 117L168 116M227 116L228 117L227 116z"/>
<path style="fill:#ffafaf; stroke:none;" d="M166 117L167 118L166 117M229 117L230 118L229 117z"/>
<path style="fill:#580000; stroke:none;" d="M355 117L356 118L355 117z"/>
<path style="fill:#ffa3a3; stroke:none;" d="M164 118L165 119L164 118M231 118L232 119L231 118z"/>
<path style="fill:#ff8383; stroke:none;" d="M162 119L163 120L162 119M233 119L234 120L233 119z"/>
<path style="fill:#ffc4c4; stroke:none;" d="M161 120L162 121L161 120M234 120L235 121L234 120z"/>
<path style="fill:#d50000; stroke:none;" d="M356.333 120.667L356.333 121L356.667 121.333L356.667 120.667L356.333 120.667z"/>
<path style="fill:#5c0000; stroke:none;" d="M42 121L43 122L42 121z"/>
<path style="fill:#ff9393; stroke:none;" d="M159 121L160 122L159 121M236 121L237 122L236 121z"/>
<path style="fill:#ffc2c2; stroke:none;" d="M158 122L159 123L158 122M237 122L238 123L237 122z"/>
<path style="fill:#ff6d6d; stroke:none;" d="M156 123L157 124L156 123M239 123L240 124L239 123z"/>
<path style="fill:#be0000; stroke:none;" d="M41.3333 124.667L41.3333 125.333L41.6667 125.333L41.6667 124.667L41.3333 124.667z"/>
<path style="fill:#ff9b9b; stroke:none;" d="M155 124L156 125L155 124M240 124L241 125L240 124z"/>
<path style="fill:#ffb6b6; stroke:none;" d="M154 125L155 126L154 125M241 125L242 126L241 125z"/>
<path style="fill:#6c0000; stroke:none;" d="M358 125L359 126L358 125z"/>
<path style="fill:#ffc7c7; stroke:none;" d="M153 126L154 127L153 126M242 126L243 127L242 126z"/>
<path style="fill:#bd0000; stroke:none;" d="M40.3333 127.667L40.3333 128.333L40.6667 128.333L40.6667 128L40.3333 127.667z"/>
<path style="fill:#6e0000; stroke:none;" d="M359 128L360 129L359 128z"/>
<path style="fill:#b20000; stroke:none;" d="M39.3333 130.667L39.3333 131.333L39.6667 131.333L39.6667 130.667L39.3333 130.667z"/>
<path style="fill:#620000; stroke:none;" d="M360 131L361 132L360 131z"/>
<path style="fill:#ffc5c5; stroke:none;" d="M147 132L148 133L147 132M248 132L249 133L248 132z"/>
<path style="fill:#ffb2b2; stroke:none;" d="M146 133L147 134L146 133M249 133L250 134L249 133z"/>
<path style="fill:#ca0000; stroke:none;" d="M38.3333 134.667L38.3333 135.333L38.6667 135.333L38.6667 134.667L38.3333 134.667z"/>
<path style="fill:#ff9494; stroke:none;" d="M145 134L146 135L145 134M250 134L251 135L250 134z"/>
<path style="fill:#ff5f5f; stroke:none;" d="M144 135L145 136L144 135M251 135L252 136L251 135z"/>
<path style="fill:#c80000; stroke:none;" d="M361.333 135.667L361.333 136L361.667 136.333L361.667 135.667L361.333 135.667z"/>
<path style="fill:#a70000; stroke:none;" d="M37.3333 137.667L37.3333 138L37.6667 138.333L37.6667 138L37.3333 137.667z"/>
<path style="fill:#ffb9b9; stroke:none;" d="M143 137L144 138L143 137M252 137L253 138L252 137z"/>
<path style="fill:#ff8181; stroke:none;" d="M142 138L143 139L142 138M253 138L254 139L253 138z"/>
<path style="fill:#ad0000; stroke:none;" d="M362.333 138.667L362.333 139L362.667 139.333L362.667 138.667L362.333 138.667z"/>
<path style="fill:#ffb4b4; stroke:none;" d="M141 140L142 141L141 140M254 140L255 141L254 140z"/>
<path style="fill:#9f0000; stroke:none;" d="M36.3333 141.667L36.3333 142.333L36.6667 142.333L36.6667 142L36.3333 141.667z"/>
<path style="fill:#ff5c5c; stroke:none;" d="M140 141L141 142L140 141M255 141L256 142L255 141z"/>
<path style="fill:#a20000; stroke:none;" d="M363.333 142.667L363.333 143.333L363.667 143.333L363.667 142.667L363.333 142.667z"/>
<path style="fill:#ff7e7e; stroke:none;" d="M139 143L140 144L139 143M256 143L257 144L256 143z"/>
<path style="fill:#ff8181; stroke:none;" d="M138 145L139 146L138 145M257 145L258 146L257 145z"/>
<path style="fill:#a80000; stroke:none;" d="M35.3333 146.667L35.3333 147.333L35.6667 147.333L35.6667 146.667L35.3333 146.667z"/>
<path style="fill:#ff6c6c; stroke:none;" d="M137 147L138 148L137 147M258 147L259 148L258 147z"/>
<path style="fill:#af0000; stroke:none;" d="M364.333 147.667L364.333 148.333L364.667 148.333L364.667 147.667L364.333 147.667z"/>
<path style="fill:#ffa1a1; stroke:none;" d="M136 150L137 151L136 150M259 150L260 151L259 150z"/>
<path style="fill:#910000; stroke:none;" d="M34.3333 151.667L34.3333 152L34.6667 152.333L34.6667 151.667L34.3333 151.667z"/>
<path style="fill:#ff4f4f; stroke:none;" d="M135 152L136 153L135 152M260 152L261 153L260 152z"/>
<path style="fill:#9b0000; stroke:none;" d="M365.333 152.667L365.333 153.333L365.667 153.333L365.667 153L365.333 152.667z"/>
<path style="fill:#c80000; stroke:none;" d="M34.3333 153.667L34.3333 154.333L34.6667 154.333L34.6667 153.667L34.3333 153.667z"/>
<path style="fill:#ffd7d7; stroke:none;" d="M135.333 153.667L135.333 154.333L135.667 154.333L135.667 154L135.333 153.667M260.333 153.667L260.333 154L260.667 154.333L260.667 153.667L260.333 153.667z"/>
<path style="fill:#ffb9b9; stroke:none;" d="M134.333 156.667L134.333 157.333L134.667 157.333L134.667 157L134.333 156.667M261.333 156.667L261.333 157.333L261.667 157.333L261.667 156.667L261.333 156.667z"/>
<path style="fill:#820000; stroke:none;" d="M33.3333 158.667L33.3333 159.333L33.6667 159.333L33.6667 158.667L33.3333 158.667z"/>
<path style="fill:#710000; stroke:none;" d="M366.333 158.667L366.333 159.333L366.667 159.333L366.667 158.667L366.333 158.667z"/>
<path style="fill:#cf0000; stroke:none;" d="M33 160L33 164L33.7222 163.222L33.7222 162.722L33.8889 162L33.7222 160.778L33 160z"/>
<path style="fill:#ff9090; stroke:none;" d="M133.333 160.667L133.333 161.333L133.667 161.333L133.667 161L133.333 160.667M262.333 160.667L262.333 161.333L262.667 161.333L262.667 160.667L262.333 160.667z"/>
<path style="fill:#c40000; stroke:none;" d="M366 160L366 164L366.722 163.222L366.889 162L366.722 161.278L366.722 160.778L366 160z"/>
<path style="fill:#ffc6c6; stroke:none;" d="M133.333 162.667L133.333 163.333L133.667 163.333L133.667 163L133.333 162.667M262.333 162.667L262.333 163.333L262.667 163.333L262.667 162.667L262.333 162.667z"/>
<path style="fill:#ea0000; stroke:none;" d="M33 171L33 179L33.7222 178.222L33.75 177.694L33.9444 176.889L33.9722 175.972L34 175L33.9444 173.111L33.75 172.306L33.7222 171.778L33 171z"/>
<path style="fill:#ffc6c6; stroke:none;" d="M133 176L133 179L133.694 178.25L133.694 177.194L133.694 176.75L133 176M262 176L262 179L262.694 178.25L262.694 177.194L262.694 176.75L262 176z"/>
<path style="fill:#a90000; stroke:none;" d="M366 176L366 182L366.722 181.222L366.75 180.694L366.944 179.889L366.944 178.111L366.75 177.306L366.722 176.778L366 176z"/>
<path style="fill:#b40000; stroke:none;" d="M33 179L33 182L33.6944 181.25L33.6944 180.194L33.6944 179.75L33 179z"/>
<path style="fill:#ff5d5d; stroke:none;" d="M133.333 179.667L133.333 180.333L133.667 180.333L133.667 180L133.333 179.667M262.333 179.667L262.333 180.333L262.667 180.333L262.667 179.667L262.333 179.667z"/>
<path style="fill:#840000; stroke:none;" d="M33 182L33 185L33.6944 184.25L33.6944 183.194L33.6944 182.75L33 182z"/>
<path style="fill:#ffb9b9; stroke:none;" d="M134 182L134 185L134.694 184.25L134.694 183.194L134.694 182.75L134 182M261 182L261 185L261.694 184.25L261.694 183.194L261.694 182.75L261 182z"/>
<path style="fill:#580000; stroke:none;" d="M366.333 182.667L366.333 183.333L366.667 183.333L366.667 182.667L366.333 182.667z"/>
<path style="fill:#ffa7a7; stroke:none;" d="M135 187L136 188L135 187M260 187L261 188L260 187z"/>
<path style="fill:#ff4f4f; stroke:none;" d="M135 188L136 189L135 188M260 188L261 189L260 188z"/>
<path style="fill:#a70000; stroke:none;" d="M365 189L365 192L365.694 191.25L365.694 190.806L365.694 189.75L365 189z"/>
<path style="fill:#a80000; stroke:none;" d="M34 190L34 194L34.7222 193.222L34.7222 192.722L34.8889 192L34.7222 190.778L34 190z"/>
<path style="fill:#ffa1a1; stroke:none;" d="M136 190L137 191L136 190M259 190L260 191L259 190z"/>
<path style="fill:#ffc3c3; stroke:none;" d="M137 192L138 193L137 192M258 192L259 193L258 192z"/>
<path style="fill:#ff6c6c; stroke:none;" d="M137 193L138 194L137 193M258 193L259 194L258 193z"/>
<path style="fill:#ff8181; stroke:none;" d="M138 195L139 196L138 195M257 195L258 196L257 195z"/>
<path style="fill:#cb0000; stroke:none;" d="M35 196L35 199L35.6944 198.25L35.6944 197.806L35.6944 196.75L35 196z"/>
<path style="fill:#ff7e7e; stroke:none;" d="M139 197L140 198L139 197M256 197L257 198L256 197z"/>
<path style="fill:#930000; stroke:none;" d="M364 197L364 200L364.694 199.25L364.694 198.194L364.694 197.75L364 197z"/>
<path style="fill:#680000; stroke:none;" d="M35.3333 199.667L35.3333 200L35.6667 200.333L35.6667 200L35.3333 199.667z"/>
<path style="fill:#ff5c5c; stroke:none;" d="M140 199L141 200L140 199M255 199L256 200L255 199z"/>
<path style="fill:#ffb4b4; stroke:none;" d="M141 200L142 201L141 200M254 200L255 201L254 200z"/>
<path style="fill:#ff8181; stroke:none;" d="M142 202L143 203L142 202M253 202L254 203L253 202z"/>
<path style="fill:#b30000; stroke:none;" d="M363 202L363 205L363.694 204.25L363.694 203.806L363.694 202.75L363 202z"/>
<path style="fill:#b90000; stroke:none;" d="M36 203L36 206L36.6944 205.25L36.6944 204.194L36.6944 203.75L36 203z"/>
<path style="fill:#ffb9b9; stroke:none;" d="M143 203L144 204L143 203M252 203L253 204L252 203z"/>
<path style="fill:#ff5f5f; stroke:none;" d="M144 205L145 206L144 205M251 205L252 206L251 205z"/>
<path style="fill:#5a0000; stroke:none;" d="M363 205L364 206L363 205z"/>
<path style="fill:#620000; stroke:none;" d="M36 206L37 207L36 206z"/>
<path style="fill:#ff9494; stroke:none;" d="M145 206L146 207L145 206M250 206L251 207L250 206z"/>
<path style="fill:#ffb2b2; stroke:none;" d="M146 207L147 208L146 207M249 207L250 208L249 207z"/>
<path style="fill:#c80000; stroke:none;" d="M362 207L362 210L362.694 209.25L362.694 208.806L362.694 207.75L362 207M37 208L37 211L37.6944 210.25L37.6944 209.806L37.6944 208.75L37 208z"/>
<path style="fill:#ffc5c5; stroke:none;" d="M147 208L148 209L147 208M248 208L249 209L248 208z"/>
<path style="fill:#6d0000; stroke:none;" d="M362 210L363 211L362 210z"/>
<path style="fill:#750000; stroke:none;" d="M37 211L38 212L37 211z"/>
<path style="fill:#be0000; stroke:none;" d="M361 212L361 215L361.694 214.25L361.694 213.806L361.694 212.75L361 212z"/>
<path style="fill:#a00000; stroke:none;" d="M38 214L38 217L38.6944 216.25L38.6944 215.806L38.6944 214.75L38 214z"/>
<path style="fill:#ffc7c7; stroke:none;" d="M153 214L154 215L153 214M242 214L243 215L242 214z"/>
<path style="fill:#ffb6b6; stroke:none;" d="M154 215L155 216L154 215M241 215L242 216L241 215z"/>
<path style="fill:#550000; stroke:none;" d="M361 215L362 216L361 215z"/>
<path style="fill:#ff9b9b; stroke:none;" d="M155 216L156 217L155 216M240 216L241 217L240 216z"/>
<path style="fill:#ff6d6d; stroke:none;" d="M156 217L157 218L156 217M239 217L240 218L239 217z"/>
<path style="fill:#ae0000; stroke:none;" d="M360 217L360 220L360.694 219.25L360.694 218.806L360.694 217.75L360 217z"/>
<path style="fill:#b40000; stroke:none;" d="M39 218L39 221L39.6944 220.25L39.6944 219.194L39.6944 218.75L39 218z"/>
<path style="fill:#ffc2c2; stroke:none;" d="M158 218L159 219L158 218M237 218L238 219L237 218z"/>
<path style="fill:#ff9393; stroke:none;" d="M159 219L160 220L159 219M236 219L237 220L236 219z"/>
<path style="fill:#ffc4c4; stroke:none;" d="M161 220L162 221L161 220M234 220L235 221L234 220z"/>
<path style="fill:#ff8383; stroke:none;" d="M162 221L163 222L162 221M233 221L234 222L233 221z"/>
<path style="fill:#ae0000; stroke:none;" d="M359 221L359 224L359.694 223.25L359.694 222.194L359.694 221.75L359 221z"/>
<path style="fill:#ffa3a3; stroke:none;" d="M164 222L165 223L164 222M231 222L232 223L231 222z"/>
<path style="fill:#8e0000; stroke:none;" d="M40.3333 223.667L40.3333 224L40.6667 224.333L40.6667 224L40.3333 223.667z"/>
<path style="fill:#ffafaf; stroke:none;" d="M166 223L167 224L166 223M229 223L230 224L229 223z"/>
<path style="fill:#ffadad; stroke:none;" d="M168 224L169 225L168 224M227 224L228 225L227 224z"/>
<path style="fill:#ff9c9c; stroke:none;" d="M170 225L171 226L170 225M225 225L226 226L225 225z"/>
<path style="fill:#af0000; stroke:none;" d="M358 225L358 228L358.694 227.25L358.694 226.806L358.694 225.75L358 225z"/>
<path style="fill:#ff7373; stroke:none;" d="M172 226L173 227L172 226z"/>
<path style="fill:#ffc2c2; stroke:none;" d="M222 226L223 227L222 226z"/>
<path style="fill:#ff7373; stroke:none;" d="M223 226L224 227L223 226z"/>
<path style="fill:#890000; stroke:none;" d="M41.3333 227.667L41.3333 228L41.6667 228.333L41.6667 227.667L41.3333 227.667z"/>
<path style="fill:#ff8e8e; stroke:none;" d="M175 227L176 228L175 227z"/>
<path style="fill:#ffcaca; stroke:none;" d="M219 227L220 228L219 227z"/>
<path style="fill:#ff8e8e; stroke:none;" d="M220 227L221 228L220 227z"/>
<path style="fill:#ff8282; stroke:none;" d="M178 228L179 229L178 228z"/>
<path style="fill:#ffe2e2; stroke:none;" d="M179.667 228.333L179.667 228.667L180.333 228.667L180.333 228.333L179.667 228.333z"/>
<path style="fill:#ffbbbb; stroke:none;" d="M216 228L217 229L216 228z"/>
<path style="fill:#ff8282; stroke:none;" d="M217 228L218 229L217 228z"/>
<path style="fill:#ffb7b7; stroke:none;" d="M182.667 229.333L183 229.667L183.333 229.667L183.333 229.333L182.667 229.333M211 229L211.722 229.722L212.25 229.75L214 230L213.278 229.278L212.75 229.25L211 229z"/>
<path style="fill:#930000; stroke:none;" d="M357.333 229.667L357.333 230.333L357.667 230.333L357.667 229.667L357.333 229.667z"/>
<path style="fill:#ff4040; stroke:none;" d="M186 230L187 231L186 230z"/>
<path style="fill:#ffa0a0; stroke:none;" d="M187.667 230.333L187.667 230.667L188.333 230.667L188.333 230.333L187.667 230.333z"/>
<path style="fill:#ffe5e5; stroke:none;" d="M189 230L189.778 230.722L190.25 230.75L191.056 230.944L193 231L192.222 230.278L191.75 230.25L190.944 230.056L189 230z"/>
<path style="fill:#ffcbcb; stroke:none;" d="M204 230L204.722 230.722L205.25 230.75L207 231L206.278 230.278L205.75 230.25L204 230z"/>
<path style="fill:#ff7e7e; stroke:none;" d="M207.667 230.333L208 230.667L208.333 230.667L208.333 230.333L207.667 230.333z"/>
<path style="fill:#ff4040; stroke:none;" d="M209 230L210 231L209 230z"/>
<path style="fill:#720000; stroke:none;" d="M42.3333 231.667L42.3333 232L42.6667 232.333L42.6667 231.667L42.3333 231.667z"/>
<path style="fill:#690000; stroke:none;" d="M356.333 233.667L356.333 234.333L356.667 234.333L356.667 233.667L356.333 233.667z"/>
<path style="fill:#9c0000; stroke:none;" d="M43.3333 234.667L43.3333 235.333L43.6667 235.333L43.6667 234.667L43.3333 234.667z"/>
<path style="fill:#490000; stroke:none;" d="M43 236L44 237L43 236z"/>
<path style="fill:#830000; stroke:none;" d="M355 237L356 238L355 237z"/>
<path style="fill:#af0000; stroke:none;" d="M44 238L45 239L44 238z"/>
<path style="fill:#620000; stroke:none;" d="M44 239L45 240L44 239z"/>
<path style="fill:#890000; stroke:none;" d="M354 240L355 241L354 240z"/>
<path style="fill:#770000; stroke:none;" d="M45 242L46 243L45 242z"/>
<path style="fill:#910000; stroke:none;" d="M353 243L354 244L353 243z"/>
<path style="fill:#890000; stroke:none;" d="M46 245L47 246L46 245z"/>
<path style="fill:#8c0000; stroke:none;" d="M352 246L353 247L352 246z"/>
<path style="fill:#980000; stroke:none;" d="M47 248L48 249L47 248z"/>
<path style="fill:#760000; stroke:none;" d="M351 249L352 250L351 249z"/>
<path style="fill:#960000; stroke:none;" d="M48 251L49 252L48 251z"/>
<path style="fill:#b50000; stroke:none;" d="M350 251L351 252L350 251z"/>
<path style="fill:#5f0000; stroke:none;" d="M350 252L351 253L350 252z"/>
<path style="fill:#860000; stroke:none;" d="M49 254L50 255L49 254z"/>
<path style="fill:#a20000; stroke:none;" d="M349 254L350 255L349 254z"/>
<path style="fill:#710000; stroke:none;" d="M50 257L51 258L50 257z"/>
<path style="fill:#780000; stroke:none;" d="M348 257L349 258L348 257z"/>
<path style="fill:#b60000; stroke:none;" d="M51 259L52 260L51 259z"/>
<path style="fill:#a80000; stroke:none;" d="M347 259L348 260L347 259z"/>
<path style="fill:#5f0000; stroke:none;" d="M51 260L52 261L51 260z"/>
<path style="fill:#a90000; stroke:none;" d="M52 262L53 263L52 262z"/>
<path style="fill:#7e0000; stroke:none;" d="M346 262L347 263L346 262z"/>
<path style="fill:#a30000; stroke:none;" d="M345 264L346 265L345 264z"/>
<path style="fill:#830000; stroke:none;" d="M53 265L54 266L53 265z"/>
<path style="fill:#b10000; stroke:none;" d="M54 267L55 268L54 267z"/>
<path style="fill:#5d0000; stroke:none;" d="M344 267L345 268L344 267z"/>
<path style="fill:#4d0000; stroke:none;" d="M54 268L55 269L54 268z"/>
<path style="fill:#820000; stroke:none;" d="M343 269L344 270L343 269z"/>
<path style="fill:#890000; stroke:none;" d="M55 270L56 271L55 270z"/>
<path style="fill:#a30000; stroke:none;" d="M342 271L343 272L342 271z"/>
<path style="fill:#b50000; stroke:none;" d="M56 272L57 273L56 272z"/>
<path style="fill:#4f0000; stroke:none;" d="M56 273L57 274L56 273z"/>
<path style="fill:#b50000; stroke:none;" d="M341 273L342 274L341 273z"/>
<path style="fill:#8f0000; stroke:none;" d="M57 275L58 276L57 275z"/>
<path style="fill:#5f0000; stroke:none;" d="M340 276L341 277L340 276z"/>
<path style="fill:#ae0000; stroke:none;" d="M58 277L59 278L58 277z"/>
<path style="fill:#720000; stroke:none;" d="M339 278L340 279L339 278z"/>
<path style="fill:#630000; stroke:none;" d="M59 280L60 281L59 280z"/>
<path style="fill:#860000; stroke:none;" d="M338 280L339 281L338 280z"/>
<path style="fill:#8a0000; stroke:none;" d="M60 282L61 283L60 282z"/>
<path style="fill:#8f0000; stroke:none;" d="M337 282L338 283L337 282z"/>
<path style="fill:#a70000; stroke:none;" d="M61 284L62 285L61 284z"/>
<path style="fill:#930000; stroke:none;" d="M336 284L337 285L336 284z"/>
<path style="fill:#960000; stroke:none;" d="M335 286L336 287L335 286z"/>
<path style="fill:#5a0000; stroke:none;" d="M62 287L63 288L62 287z"/>
<path style="fill:#990000; stroke:none;" d="M334 288L335 289L334 288z"/>
<path style="fill:#770000; stroke:none;" d="M63 289L64 290L63 289z"/>
<path style="fill:#9b0000; stroke:none;" d="M333 290L334 291L333 290z"/>
<path style="fill:#8a0000; stroke:none;" d="M64 291L65 292L64 291z"/>
<path style="fill:#900000; stroke:none;" d="M332 292L333 293L332 292z"/>
<path style="fill:#980000; stroke:none;" d="M65 293L66 294L65 293z"/>
<path style="fill:#850000; stroke:none;" d="M331 294L332 295L331 294z"/>
<path style="fill:#a50000; stroke:none;" d="M66 295L67 296L66 295z"/>
<path style="fill:#790000; stroke:none;" d="M330 296L331 297L330 296z"/>
<path style="fill:#b00000; stroke:none;" d="M67 297L68 298L67 297z"/>
<path style="fill:#700000; stroke:none;" d="M329 298L330 299L329 298z"/>
<path style="fill:#4b0000; stroke:none;" d="M68 300L69 301L68 300z"/>
<path style="fill:#5d0000; stroke:none;" d="M328 300L329 301L328 300z"/>
<path style="fill:#4f0000; stroke:none;" d="M69 302L70 303L69 302z"/>
<path style="fill:#aa0000; stroke:none;" d="M326 303L327 304L326 303z"/>
<path style="fill:#510000; stroke:none;" d="M70 304L71 305L70 304z"/>
<path style="fill:#950000; stroke:none;" d="M325 305L326 306L325 305z"/>
<path style="fill:#4d0000; stroke:none;" d="M71 306L72 307L71 306z"/>
<path style="fill:#7e0000; stroke:none;" d="M324 307L325 308L324 307z"/>
<path style="fill:#4d0000; stroke:none;" d="M72 308L73 309L72 308z"/>
<path style="fill:#620000; stroke:none;" d="M323 309L324 310L323 309z"/>
<path style="fill:#9e0000; stroke:none;" d="M321 312L322 313L321 312z"/>
<path style="fill:#7d0000; stroke:none;" d="M320 314L321 315L320 314z"/>
<path style="fill:#b10000; stroke:none;" d="M76 315L77 316L76 315z"/>
<path style="fill:#550000; stroke:none;" d="M319 316L320 317L319 316z"/>
<path style="fill:#a20000; stroke:none;" d="M77 317L78 318L77 317z"/>
<path style="fill:#b40000; stroke:none;" d="M318 317L319 318L318 317z"/>
<path style="fill:#920000; stroke:none;" d="M78 319L79 320L78 319z"/>
<path style="fill:#8b0000; stroke:none;" d="M317 319L318 320L317 319z"/>
<path style="fill:#7e0000; stroke:none;" d="M79 321L80 322L79 321z"/>
<path style="fill:#5c0000; stroke:none;" d="M316 321L317 322L316 321z"/>
<path style="fill:#b20000; stroke:none;" d="M315 322L316 323L315 322z"/>
<path style="fill:#6c0000; stroke:none;" d="M80 323L81 324L80 323z"/>
<path style="fill:#890000; stroke:none;" d="M314 324L315 325L314 324z"/>
<path style="fill:#580000; stroke:none;" d="M81 325L82 326L81 325z"/>
<path style="fill:#550000; stroke:none;" d="M313 326L314 327L313 326z"/>
<path style="fill:#ad0000; stroke:none;" d="M312 327L313 328L312 327z"/>
<path style="fill:#a60000; stroke:none;" d="M83 328L84 329L83 328z"/>
<path style="fill:#770000; stroke:none;" d="M311 329L312 330L311 329z"/>
<path style="fill:#870000; stroke:none;" d="M84 330L85 331L84 330z"/>
<path style="fill:#650000; stroke:none;" d="M85 332L86 333L85 332z"/>
<path style="fill:#940000; stroke:none;" d="M309 332L310 333L309 332z"/>
<path style="fill:#5c0000; stroke:none;" d="M308 334L309 335L308 334z"/>
<path style="fill:#aa0000; stroke:none;" d="M87 335L88 336L87 335z"/>
<path style="fill:#ab0000; stroke:none;" d="M307 335L308 336L307 335z"/>
<path style="fill:#8a0000; stroke:none;" d="M88 337L89 338L88 337z"/>
<path style="fill:#720000; stroke:none;" d="M306 337L307 338L306 337z"/>
<path style="fill:#630000; stroke:none;" d="M89 339L90 340L89 339z"/>
<path style="fill:#7e0000; stroke:none;" d="M304 340L305 341L304 340z"/>
<path style="fill:#900000; stroke:none;" d="M91 342L92 343L91 342z"/>
<path style="fill:#8d0000; stroke:none;" d="M302 343L303 344L302 343z"/>
<path style="fill:#600000; stroke:none;" d="M92 344L93 345L92 344z"/>
<path style="fill:#950000; stroke:none;" d="M300 346L301 347L300 346M94 347L95 348L94 347z"/>
<path style="fill:#4b0000; stroke:none;" d="M299 348L300 349L299 348z"/>
<path style="fill:#680000; stroke:none;" d="M95 349L96 350L95 349z"/>
<path style="fill:#950000; stroke:none;" d="M298 349L299 350L298 349z"/>
<path style="fill:#4b0000; stroke:none;" d="M297 351L298 352L297 351z"/>
<path style="fill:#870000; stroke:none;" d="M97 352L98 353L97 352z"/>
<path style="fill:#990000; stroke:none;" d="M296 352L297 353L296 352z"/>
<path style="fill:#4b0000; stroke:none;" d="M98 354L99 355L98 354M295 354L296 355L295 354z"/>
<path style="fill:#a20000; stroke:none;" d="M99 355L100 356L99 355z"/>
<path style="fill:#950000; stroke:none;" d="M294 355L295 356L294 355z"/>
<path style="fill:#690000; stroke:none;" d="M100 357L101 358L100 357z"/>
<path style="fill:#880000; stroke:none;" d="M292 358L293 359L292 358z"/>
<path style="fill:#800000; stroke:none;" d="M102 360L103 361L102 360z"/>
<path style="fill:#760000; stroke:none;" d="M290 361L291 362L290 361z"/>
<path style="fill:#b40000; stroke:none;" d="M289 362L290 363L289 362z"/>
<path style="fill:#930000; stroke:none;" d="M104 363L105 364L104 363z"/>
<path style="fill:#630000; stroke:none;" d="M288 364L289 365L288 364z"/>
<path style="fill:#4d0000; stroke:none;" d="M105 365L106 366L105 365z"/>
<path style="fill:#a50000; stroke:none;" d="M287 365L288 366L287 365z"/>
<path style="fill:#9c0000; stroke:none;" d="M106 366L107 367L106 366z"/>
<path style="fill:#550000; stroke:none;" d="M286 367L287 368L286 367z"/>
<path style="fill:#560000; stroke:none;" d="M107 368L108 369L107 368z"/>
<path style="fill:#940000; stroke:none;" d="M285 368L286 369L285 368z"/>
<path style="fill:#a40000; stroke:none;" d="M108 369L109 370L108 369z"/>
<path style="fill:#5c0000; stroke:none;" d="M109 371L110 372L109 371z"/>
<path style="fill:#870000; stroke:none;" d="M283 371L284 372L283 371z"/>
<path style="fill:#ac0000; stroke:none;" d="M110 372L111 373L110 372z"/>
<path style="fill:#5c0000; stroke:none;" d="M111 374L112 375L111 374z"/>
<path style="fill:#750000; stroke:none;" d="M281 374L282 375L281 374z"/>
<path style="fill:#a60000; stroke:none;" d="M112 375L113 376L112 375z"/>
<path style="fill:#b20000; stroke:none;" d="M280 375L281 376L280 375z"/>
<path style="fill:#510000; stroke:none;" d="M113 377L114 378L113 377z"/>
<path style="fill:#580000; stroke:none;" d="M279 377L280 378L279 377z"/>
<path style="fill:#990000; stroke:none;" d="M114 378L115 379L114 378z"/>
<path style="fill:#950000; stroke:none;" d="M278 378L279 379L278 378z"/>
<path style="fill:#4d0000; stroke:none;" d="M115 380L116 381L115 380z"/>
<path style="fill:#940000; stroke:none;" d="M116 381L117 382L116 381z"/>
<path style="fill:#750000; stroke:none;" d="M276 381L277 382L276 381z"/>
<path style="fill:#aa0000; stroke:none;" d="M275 382L276 383L275 382z"/>
<path style="fill:#860000; stroke:none;" d="M118 384L119 385L118 384z"/>
<path style="fill:#4d0000; stroke:none;" d="M274 384L275 385L274 384z"/>
<path style="fill:#8b0000; stroke:none;" d="M273 385L274 386L273 385z"/>
<path style="fill:#700000; stroke:none;" d="M120 387L121 388L120 387z"/>
<path style="fill:#af0000; stroke:none;" d="M121 388L122 389L121 388z"/>
<path style="fill:#6c0000; stroke:none;" d="M271 388L272 389L271 388z"/>
<path style="fill:#a20000; stroke:none;" d="M270 389L271 390L270 389z"/>
<path style="fill:#530000; stroke:none;" d="M122 390L123 391L122 390z"/>
<path style="fill:#970000; stroke:none;" d="M123 391L124 392L123 391z"/>
<path style="fill:#820000; stroke:none;" d="M268 392L269 393L268 392z"/>
<path style="fill:#7d0000; stroke:none;" d="M125 394L126 395L125 394z"/>
<path style="fill:#b60000; stroke:none;" d="M126 395L127 396L126 395z"/>
<path style="fill:#600000; stroke:none;" d="M266 395L267 396L266 395z"/>
<path style="fill:#970000; stroke:none;" d="M265 396L266 397L265 396z"/>
<path style="fill:#580000; stroke:none;" d="M127 397L128 398L127 397z"/>
<path style="fill:#910000; stroke:none;" d="M128 398L129 399L128 398z"/>
<path style="fill:#690000; stroke:none;" d="M263 399L264 400L263 399z"/>
<path style="fill:#a10000; stroke:none;" d="M262 400L263 401L262 400z"/>
<path style="fill:#690000; stroke:none;" d="M130 401L131 402L130 401z"/>
<path style="fill:#a70000; stroke:none;" d="M131 402L132 403L131 402z"/>
<path style="fill:#700000; stroke:none;" d="M260 403L261 404L260 403z"/>
<path style="fill:#a40000; stroke:none;" d="M259 404L260 405L259 404z"/>
<path style="fill:#760000; stroke:none;" d="M133 405L134 406L133 405z"/>
<path style="fill:#ad0000; stroke:none;" d="M134 406L135 407L134 406z"/>
<path style="fill:#760000; stroke:none;" d="M257 407L258 408L257 407z"/>
<path style="fill:#aa0000; stroke:none;" d="M256 408L257 409L256 408z"/>
<path style="fill:#760000; stroke:none;" d="M136 409L137 410L136 409z"/>
<path style="fill:#ae0000; stroke:none;" d="M137 410L138 411L137 410z"/>
<path style="fill:#810000; stroke:none;" d="M254 411L255 412L254 411z"/>
<path style="fill:#b00000; stroke:none;" d="M253 412L254 413L253 412z"/>
<path style="fill:#7c0000; stroke:none;" d="M139 413L140 414L139 413z"/>
<path style="fill:#a90000; stroke:none;" d="M140 414L141 415L140 414z"/>
<path style="fill:#4d0000; stroke:none;" d="M252 414L253 415L252 414z"/>
<path style="fill:#840000; stroke:none;" d="M251 415L252 416L251 415z"/>
<path style="fill:#b60000; stroke:none;" d="M250 416L251 417L250 416z"/>
<path style="fill:#650000; stroke:none;" d="M142 417L143 418L142 417z"/>
<path style="fill:#8d0000; stroke:none;" d="M143 418L144 419L143 418z"/>
<path style="fill:#510000; stroke:none;" d="M249 418L250 419L249 418z"/>
<path style="fill:#860000; stroke:none;" d="M248 419L249 420L248 419z"/>
<path style="fill:#b40000; stroke:none;" d="M247 420L248 421L247 420z"/>
<path style="fill:#4b0000; stroke:none;" d="M145 421L146 422L145 421z"/>
<path style="fill:#770000; stroke:none;" d="M146 422L147 423L146 422z"/>
<path style="fill:#4d0000; stroke:none;" d="M246 422L247 423L246 422z"/>
<path style="fill:#a30000; stroke:none;" d="M147 423L148 424L147 423z"/>
<path style="fill:#830000; stroke:none;" d="M245 423L246 424L245 423z"/>
<path style="fill:#b00000; stroke:none;" d="M244 424L245 425L244 424z"/>
<path style="fill:#600000; stroke:none;" d="M149 426L150 427L149 426z"/>
<path style="fill:#4b0000; stroke:none;" d="M243 426L244 427L243 426z"/>
<path style="fill:#8c0000; stroke:none;" d="M150 427L151 428L150 427z"/>
<path style="fill:#7c0000; stroke:none;" d="M242 427L243 428L242 427z"/>
<path style="fill:#ac0000; stroke:none;" d="M241 428L242 429L241 428z"/>
<path style="fill:#490000; stroke:none;" d="M152 430L153 431L152 430z"/>
<path style="fill:#790000; stroke:none;" d="M153 431L154 432L153 431z"/>
<path style="fill:#760000; stroke:none;" d="M239 431L240 432L239 431z"/>
<path style="fill:#9a0000; stroke:none;" d="M154 432L155 433L154 432z"/>
<path style="fill:#a70000; stroke:none;" d="M238 432L239 433L238 432z"/>
<path style="fill:#710000; stroke:none;" d="M236 435L237 436L236 435z"/>
<path style="fill:#650000; stroke:none;" d="M157 436L158 437L157 436z"/>
<path style="fill:#a40000; stroke:none;" d="M235 436L236 437L235 436z"/>
<path style="fill:#8d0000; stroke:none;" d="M158 437L159 438L158 437z"/>
<path style="fill:#b20000; stroke:none;" d="M159 438L160 439L159 438z"/>
<path style="fill:#6d0000; stroke:none;" d="M233 439L234 440L233 439z"/>
<path style="fill:#a10000; stroke:none;" d="M232 440L233 441L232 440z"/>
<path style="fill:#560000; stroke:none;" d="M161 441L162 442L161 441z"/>
<path style="fill:#7a0000; stroke:none;" d="M162 442L163 443L162 442z"/>
<path style="fill:#a30000; stroke:none;" d="M163 443L164 444L163 443z"/>
<path style="fill:#600000; stroke:none;" d="M230 443L231 444L230 443z"/>
<path style="fill:#920000; stroke:none;" d="M229 444L230 445L229 444z"/>
<path style="fill:#6e0000; stroke:none;" d="M166 447L167 448L166 447z"/>
<path style="fill:#530000; stroke:none;" d="M227 447L228 448L227 447z"/>
<path style="fill:#880000; stroke:none;" d="M167 448L168 449L167 448z"/>
<path style="fill:#860000; stroke:none;" d="M226 448L227 449L226 448z"/>
<path style="fill:#a70000; stroke:none;" d="M168 449L169 450L168 449z"/>
<path style="fill:#b20000; stroke:none;" d="M225 449L226 450L225 449z"/>
<path style="fill:#7a0000; stroke:none;" d="M223 452L224 453L223 452z"/>
<path style="fill:#5a0000; stroke:none;" d="M171 453L172 454L171 453z"/>
<path style="fill:#a70000; stroke:none;" d="M222 453L223 454L222 453z"/>
<path style="fill:#7a0000; stroke:none;" d="M172 454L173 455L172 454z"/>
<path style="fill:#9a0000; stroke:none;" d="M173 455L174 456L173 455z"/>
<path style="fill:#b60000; stroke:none;" d="M174 456L175 457L174 456z"/>
<path style="fill:#6e0000; stroke:none;" d="M220 456L221 457L220 456z"/>
<path style="fill:#9b0000; stroke:none;" d="M219 457L220 458L219 457z"/>
<path style="fill:#4b0000; stroke:none;" d="M176 459L177 460L176 459z"/>
<path style="fill:#660000; stroke:none;" d="M177 460L178 461L177 460z"/>
<path style="fill:#620000; stroke:none;" d="M217 460L218 461L217 460z"/>
<path style="fill:#870000; stroke:none;" d="M178 461L179 462L178 461z"/>
<path style="fill:#8f0000; stroke:none;" d="M216 461L217 462L216 461z"/>
<path style="fill:#9d0000; stroke:none;" d="M179 462L180 463L179 462z"/>
<path style="fill:#510000; stroke:none;" d="M214 464L215 465L214 464z"/>
<path style="fill:#850000; stroke:none;" d="M213 465L214 466L213 465z"/>
<path style="fill:#b10000; stroke:none;" d="M212 466L213 467L212 466z"/>
<path style="fill:#580000; stroke:none;" d="M183 467L184 468L183 467z"/>
<path style="fill:#710000; stroke:none;" d="M184 468L185 469L184 468z"/>
<path style="fill:#880000; stroke:none;" d="M185 469L186 470L185 469z"/>
<path style="fill:#790000; stroke:none;" d="M210 469L211 470L210 469z"/>
<path style="fill:#9f0000; stroke:none;" d="M186 470L187 471L186 470z"/>
<path style="fill:#a60000; stroke:none;" d="M209 470L210 471L209 470z"/>
<path style="fill:#6d0000; stroke:none;" d="M207 473L208 474L207 473z"/>
<path style="fill:#9b0000; stroke:none;" d="M206 474L207 475L206 474z"/>
<path style="fill:#4f0000; stroke:none;" d="M190 475L191 476L190 475z"/>
<path style="fill:#6c0000; stroke:none;" d="M191 476L192 477L191 476z"/>
<path style="fill:#7e0000; stroke:none;" d="M192 477L193 478L192 477z"/>
<path style="fill:#5c0000; stroke:none;" d="M204 477L205 478L204 477z"/>
<path style="fill:#970000; stroke:none;" d="M193 478L194 479L193 478z"/>
<path style="fill:#8d0000; stroke:none;" d="M203 478L204 479L203 478z"/>
<path style="fill:#aa0000; stroke:none;" d="M194 479L195 480L194 479z"/>
<path style="fill:#4f0000; stroke:none;" d="M201 481L202 482L201 481z"/>
<path style="fill:#840000; stroke:none;" d="M200 482L201 483L200 482z"/>
<path style="fill:#af0000; stroke:none;" d="M199 483L200 484L199 483z"/>
<path style="fill:#490000; stroke:none;" d="M198 484L199 485L198 484z"/>
</svg>
